<mxfile host="app.diagrams.net" modified="2022-08-26T16:42:58.521Z" agent="5.0 (Windows NT 10.0; Win64; x64) AppleWebKit/537.36 (KHTML, like Gecko) Chrome/104.0.0.0 Safari/537.36" etag="QExp64Yh_SEcp6PeeaRj" version="20.2.7" type="github">
  <diagram id="Vi270yx5NiI0KdHWeNEd" name="Página-1">
    <mxGraphModel dx="1422" dy="754" grid="1" gridSize="10" guides="1" tooltips="1" connect="1" arrows="1" fold="1" page="1" pageScale="1" pageWidth="827" pageHeight="1169" math="0" shadow="0">
      <root>
        <mxCell id="0" />
        <mxCell id="1" parent="0" />
        <mxCell id="A9OhPKMktBBxqQRQdVkh-3" value="" style="edgeStyle=orthogonalEdgeStyle;rounded=0;orthogonalLoop=1;jettySize=auto;html=1;strokeColor=default;endArrow=oval;endFill=1;strokeWidth=1;" parent="1" source="A9OhPKMktBBxqQRQdVkh-1" target="A9OhPKMktBBxqQRQdVkh-2" edge="1">
          <mxGeometry relative="1" as="geometry">
            <Array as="points">
              <mxPoint x="390" y="190" />
              <mxPoint x="90" y="190" />
            </Array>
          </mxGeometry>
        </mxCell>
        <mxCell id="A9OhPKMktBBxqQRQdVkh-6" value="" style="edgeStyle=orthogonalEdgeStyle;rounded=0;orthogonalLoop=1;jettySize=auto;html=1;endArrow=oval;endFill=1;" parent="1" source="A9OhPKMktBBxqQRQdVkh-1" target="A9OhPKMktBBxqQRQdVkh-5" edge="1">
          <mxGeometry relative="1" as="geometry" />
        </mxCell>
        <mxCell id="A9OhPKMktBBxqQRQdVkh-8" value="" style="edgeStyle=orthogonalEdgeStyle;rounded=0;orthogonalLoop=1;jettySize=auto;html=1;endArrow=oval;endFill=1;" parent="1" source="A9OhPKMktBBxqQRQdVkh-1" target="A9OhPKMktBBxqQRQdVkh-7" edge="1">
          <mxGeometry relative="1" as="geometry" />
        </mxCell>
        <mxCell id="A9OhPKMktBBxqQRQdVkh-10" value="" style="edgeStyle=orthogonalEdgeStyle;rounded=0;orthogonalLoop=1;jettySize=auto;html=1;endArrow=oval;endFill=1;" parent="1" source="A9OhPKMktBBxqQRQdVkh-1" target="A9OhPKMktBBxqQRQdVkh-9" edge="1">
          <mxGeometry relative="1" as="geometry">
            <Array as="points">
              <mxPoint x="390" y="190" />
              <mxPoint x="720" y="190" />
            </Array>
          </mxGeometry>
        </mxCell>
        <mxCell id="A9OhPKMktBBxqQRQdVkh-28" style="edgeStyle=orthogonalEdgeStyle;rounded=0;orthogonalLoop=1;jettySize=auto;html=1;entryX=0.5;entryY=0;entryDx=0;entryDy=0;fontColor=#000000;endArrow=oval;endFill=1;strokeColor=default;" parent="1" source="A9OhPKMktBBxqQRQdVkh-1" target="A9OhPKMktBBxqQRQdVkh-27" edge="1">
          <mxGeometry relative="1" as="geometry">
            <Array as="points">
              <mxPoint x="390" y="190" />
              <mxPoint x="927" y="190" />
            </Array>
          </mxGeometry>
        </mxCell>
        <mxCell id="A9OhPKMktBBxqQRQdVkh-1" value="GERENCIA GENERAL" style="rounded=0;whiteSpace=wrap;html=1;fillColor=#60a917;strokeColor=#2D7600;fontColor=#ffffff;" parent="1" vertex="1">
          <mxGeometry x="270" y="120" width="240" height="40" as="geometry" />
        </mxCell>
        <mxCell id="Qr10lvx-v81nNjawSIgx-3" style="edgeStyle=orthogonalEdgeStyle;rounded=0;orthogonalLoop=1;jettySize=auto;html=1;entryX=0;entryY=0.5;entryDx=0;entryDy=0;fontSize=14;fontColor=#000000;endArrow=oval;endFill=1;strokeColor=default;" edge="1" parent="1" source="A9OhPKMktBBxqQRQdVkh-2" target="Qr10lvx-v81nNjawSIgx-2">
          <mxGeometry relative="1" as="geometry">
            <Array as="points">
              <mxPoint x="30" y="315" />
            </Array>
          </mxGeometry>
        </mxCell>
        <mxCell id="A9OhPKMktBBxqQRQdVkh-2" value="ALMACEN" style="whiteSpace=wrap;html=1;fillColor=#1ba1e2;strokeColor=#006EAF;rounded=0;fontColor=#ffffff;" parent="1" vertex="1">
          <mxGeometry x="10" y="220" width="190" height="40" as="geometry" />
        </mxCell>
        <mxCell id="A9OhPKMktBBxqQRQdVkh-16" value="" style="edgeStyle=orthogonalEdgeStyle;rounded=0;orthogonalLoop=1;jettySize=auto;html=1;fontColor=#FFFFFF;endArrow=oval;endFill=1;strokeColor=default;" parent="1" source="A9OhPKMktBBxqQRQdVkh-5" target="A9OhPKMktBBxqQRQdVkh-15" edge="1">
          <mxGeometry relative="1" as="geometry">
            <Array as="points">
              <mxPoint x="250" y="320" />
            </Array>
          </mxGeometry>
        </mxCell>
        <mxCell id="A9OhPKMktBBxqQRQdVkh-5" value="PRODUCCION" style="whiteSpace=wrap;html=1;fillColor=#1ba1e2;strokeColor=#006EAF;rounded=0;fontColor=#ffffff;" parent="1" vertex="1">
          <mxGeometry x="220" y="220" width="170" height="40" as="geometry" />
        </mxCell>
        <mxCell id="A9OhPKMktBBxqQRQdVkh-18" value="" style="edgeStyle=orthogonalEdgeStyle;rounded=0;orthogonalLoop=1;jettySize=auto;html=1;fontColor=#FFFFFF;endArrow=oval;endFill=1;strokeColor=default;entryX=0;entryY=0.5;entryDx=0;entryDy=0;" parent="1" source="A9OhPKMktBBxqQRQdVkh-7" target="A9OhPKMktBBxqQRQdVkh-17" edge="1">
          <mxGeometry relative="1" as="geometry">
            <mxPoint x="430" y="290" as="targetPoint" />
            <Array as="points">
              <mxPoint x="430" y="315" />
            </Array>
          </mxGeometry>
        </mxCell>
        <mxCell id="A9OhPKMktBBxqQRQdVkh-22" style="edgeStyle=orthogonalEdgeStyle;rounded=0;orthogonalLoop=1;jettySize=auto;html=1;entryX=0;entryY=0.5;entryDx=0;entryDy=0;fontColor=#FFFFFF;endArrow=oval;endFill=1;strokeColor=default;" parent="1" source="A9OhPKMktBBxqQRQdVkh-7" target="A9OhPKMktBBxqQRQdVkh-21" edge="1">
          <mxGeometry relative="1" as="geometry">
            <Array as="points">
              <mxPoint x="430" y="375" />
            </Array>
          </mxGeometry>
        </mxCell>
        <mxCell id="A9OhPKMktBBxqQRQdVkh-7" value="VENTAS Y MARKETING" style="whiteSpace=wrap;html=1;fillColor=#1ba1e2;strokeColor=#006EAF;rounded=0;fontColor=#ffffff;" parent="1" vertex="1">
          <mxGeometry x="414" y="220" width="156" height="40" as="geometry" />
        </mxCell>
        <mxCell id="Qr10lvx-v81nNjawSIgx-11" style="edgeStyle=orthogonalEdgeStyle;rounded=0;orthogonalLoop=1;jettySize=auto;html=1;entryX=0;entryY=0.5;entryDx=0;entryDy=0;fontSize=14;fontColor=#000000;endArrow=oval;endFill=1;strokeColor=default;" edge="1" parent="1" source="A9OhPKMktBBxqQRQdVkh-9" target="Qr10lvx-v81nNjawSIgx-10">
          <mxGeometry relative="1" as="geometry">
            <Array as="points">
              <mxPoint x="620" y="315" />
            </Array>
          </mxGeometry>
        </mxCell>
        <mxCell id="A9OhPKMktBBxqQRQdVkh-9" value="FINANZAS Y ADMINISTRACION" style="whiteSpace=wrap;html=1;fillColor=#1ba1e2;strokeColor=#006EAF;rounded=0;fontColor=#ffffff;" parent="1" vertex="1">
          <mxGeometry x="600" y="220" width="200" height="40" as="geometry" />
        </mxCell>
        <mxCell id="A9OhPKMktBBxqQRQdVkh-15" value="Jefe de Producción" style="whiteSpace=wrap;html=1;fillColor=#fa6800;strokeColor=#C73500;fontColor=#FFFFFF;rounded=0;" parent="1" vertex="1">
          <mxGeometry x="270" y="300" width="120" height="30" as="geometry" />
        </mxCell>
        <mxCell id="A9OhPKMktBBxqQRQdVkh-17" value="Caja" style="whiteSpace=wrap;html=1;fillColor=#fa6800;strokeColor=#C73500;fontColor=#FFFFFF;rounded=0;" parent="1" vertex="1">
          <mxGeometry x="450" y="300" width="120" height="30" as="geometry" />
        </mxCell>
        <mxCell id="A9OhPKMktBBxqQRQdVkh-21" value="Centro de Marketing Digitas" style="whiteSpace=wrap;html=1;fillColor=#fa6800;strokeColor=#C73500;fontColor=#FFFFFF;rounded=0;" parent="1" vertex="1">
          <mxGeometry x="450" y="360" width="120" height="30" as="geometry" />
        </mxCell>
        <mxCell id="A9OhPKMktBBxqQRQdVkh-23" value="Text" style="text;html=1;strokeColor=none;fillColor=none;align=center;verticalAlign=middle;whiteSpace=wrap;rounded=0;fontColor=#FFFFFF;" parent="1" vertex="1">
          <mxGeometry x="380" y="360" width="60" height="30" as="geometry" />
        </mxCell>
        <mxCell id="A9OhPKMktBBxqQRQdVkh-26" value="Organigrama Funcional De La Capsula S.A.C." style="text;html=1;strokeColor=none;fillColor=none;align=center;verticalAlign=middle;whiteSpace=wrap;rounded=0;labelBackgroundColor=#FFFFFF;fontColor=#000000;fontStyle=1;fontSize=14;" parent="1" vertex="1">
          <mxGeometry y="30" width="320" height="30" as="geometry" />
        </mxCell>
        <mxCell id="A9OhPKMktBBxqQRQdVkh-31" style="edgeStyle=orthogonalEdgeStyle;rounded=0;orthogonalLoop=1;jettySize=auto;html=1;entryX=0;entryY=0.5;entryDx=0;entryDy=0;fontColor=#000000;endArrow=oval;endFill=1;strokeColor=default;" parent="1" source="A9OhPKMktBBxqQRQdVkh-27" target="A9OhPKMktBBxqQRQdVkh-29" edge="1">
          <mxGeometry relative="1" as="geometry">
            <Array as="points">
              <mxPoint x="840" y="315" />
            </Array>
          </mxGeometry>
        </mxCell>
        <mxCell id="A9OhPKMktBBxqQRQdVkh-32" style="edgeStyle=orthogonalEdgeStyle;rounded=0;orthogonalLoop=1;jettySize=auto;html=1;entryX=0;entryY=0.5;entryDx=0;entryDy=0;fontColor=#000000;endArrow=oval;endFill=1;strokeColor=default;" parent="1" source="A9OhPKMktBBxqQRQdVkh-27" target="A9OhPKMktBBxqQRQdVkh-30" edge="1">
          <mxGeometry relative="1" as="geometry">
            <Array as="points">
              <mxPoint x="840" y="365" />
            </Array>
          </mxGeometry>
        </mxCell>
        <mxCell id="Qr10lvx-v81nNjawSIgx-5" style="edgeStyle=orthogonalEdgeStyle;rounded=0;orthogonalLoop=1;jettySize=auto;html=1;fontSize=14;fontColor=#000000;endArrow=oval;endFill=1;strokeColor=default;entryX=0;entryY=0.5;entryDx=0;entryDy=0;" edge="1" parent="1" source="A9OhPKMktBBxqQRQdVkh-27" target="Qr10lvx-v81nNjawSIgx-6">
          <mxGeometry relative="1" as="geometry">
            <mxPoint x="840" y="440" as="targetPoint" />
            <Array as="points">
              <mxPoint x="840" y="415" />
            </Array>
          </mxGeometry>
        </mxCell>
        <mxCell id="Qr10lvx-v81nNjawSIgx-9" style="edgeStyle=orthogonalEdgeStyle;rounded=0;orthogonalLoop=1;jettySize=auto;html=1;entryX=0;entryY=0.5;entryDx=0;entryDy=0;fontSize=14;fontColor=#000000;endArrow=oval;endFill=1;strokeColor=default;" edge="1" parent="1" source="A9OhPKMktBBxqQRQdVkh-27" target="Qr10lvx-v81nNjawSIgx-8">
          <mxGeometry relative="1" as="geometry">
            <Array as="points">
              <mxPoint x="840" y="465" />
            </Array>
          </mxGeometry>
        </mxCell>
        <mxCell id="A9OhPKMktBBxqQRQdVkh-27" value="INFORMATICA Y SISTEMAS" style="whiteSpace=wrap;html=1;fillColor=#1ba1e2;strokeColor=#006EAF;rounded=0;fontColor=#ffffff;" parent="1" vertex="1">
          <mxGeometry x="827" y="220" width="200" height="40" as="geometry" />
        </mxCell>
        <mxCell id="A9OhPKMktBBxqQRQdVkh-29" value="Servicio Técnico" style="whiteSpace=wrap;html=1;fillColor=#fa6800;strokeColor=#C73500;fontColor=#FFFFFF;rounded=0;" parent="1" vertex="1">
          <mxGeometry x="860" y="300" width="150" height="30" as="geometry" />
        </mxCell>
        <mxCell id="A9OhPKMktBBxqQRQdVkh-30" value="Mesa De Ayuda" style="whiteSpace=wrap;html=1;fillColor=#fa6800;strokeColor=#C73500;fontColor=#FFFFFF;rounded=0;" parent="1" vertex="1">
          <mxGeometry x="860" y="350" width="150" height="30" as="geometry" />
        </mxCell>
        <mxCell id="A9OhPKMktBBxqQRQdVkh-34" value="Aprobado con una Resolución N° 835 - GG 2022 del 24-08-2022&amp;nbsp;" style="rounded=0;whiteSpace=wrap;html=1;labelBackgroundColor=#FFFFFF;fontColor=#000000;align=left;" parent="1" vertex="1">
          <mxGeometry x="777" y="525" width="250" height="60" as="geometry" />
        </mxCell>
        <mxCell id="Qr10lvx-v81nNjawSIgx-2" value="Jefe de Almacén" style="whiteSpace=wrap;html=1;fillColor=#fa6800;strokeColor=#C73500;fontColor=#FFFFFF;rounded=0;" vertex="1" parent="1">
          <mxGeometry x="50" y="300" width="120" height="30" as="geometry" />
        </mxCell>
        <mxCell id="Qr10lvx-v81nNjawSIgx-6" value="Diseño de Base de Datos" style="whiteSpace=wrap;html=1;fillColor=#fa6800;strokeColor=#C73500;fontColor=#FFFFFF;rounded=0;" vertex="1" parent="1">
          <mxGeometry x="860" y="400" width="150" height="30" as="geometry" />
        </mxCell>
        <mxCell id="Qr10lvx-v81nNjawSIgx-8" value="Diseñador de Paginas Web" style="whiteSpace=wrap;html=1;fillColor=#fa6800;strokeColor=#C73500;fontColor=#FFFFFF;rounded=0;" vertex="1" parent="1">
          <mxGeometry x="860" y="450" width="150" height="30" as="geometry" />
        </mxCell>
        <mxCell id="Qr10lvx-v81nNjawSIgx-10" value="Contabilidad" style="whiteSpace=wrap;html=1;fillColor=#fa6800;strokeColor=#C73500;fontColor=#FFFFFF;rounded=0;" vertex="1" parent="1">
          <mxGeometry x="640" y="300" width="120" height="30" as="geometry" />
        </mxCell>
      </root>
    </mxGraphModel>
  </diagram>
</mxfile>
